<svg xmlns="http://www.w3.org/2000/svg">
    <symbol id="phone" viewBox="0 0 24 24">
        <path stroke="currentColor" stroke-linecap="round" stroke-linejoin="round"
            d="M2 6.9c-.7 3.1 2 7 5 10.1 3.2 3.2 7 5.7 10.2 5a7 7 0 0 0 4.7-3.1c.2-.4.1-1-.3-1.3L18 15a1 1 0 0 0-1.3 0l-2 2s-1.8-.6-4.4-3.1a12.7 12.7 0 0 1-3.1-4.4l2-2c.3-.3.3-.9 0-1.3L6.4 2.4a1 1 0 0 0-1.2-.2A7 7 0 0 0 2 6.9Z" />
    </symbol>

    <symbol id="telegram" viewBox="0 0 24 24">
        <path fill="#1b92d1"
            d="m21.3 2.9-19.1 8c-2.4.8-1 1.7-1 1.7L5 13.8c1.7.5 2.7 0 2.7 0l8-5.5c2.9-2 2.2-.4 1.5.3l-6 5.8c-.9.8-.5 1.4 0 1.8 1.4 1.2 5.5 3.8 5.7 4 1.2.8 3.6 2.1 4-.5l1.4-9c.5-3 1-5.9 1-6.6.2-2-2-1.2-2-1.2Zm0 0" />
    </symbol>

    <symbol id="email" fill="none" viewBox="0 0 24 24">
        <path stroke="currentColor" stroke-linecap="round" stroke-linejoin="round" stroke-width="2"
            d="m4 7 6.2 4.7a3 3 0 0 0 3.6 0L20 7" />
        <rect width="18" height="14" x="3" y="5" stroke="currentColor" stroke-linecap="round" stroke-width="2" rx="2" />
    </symbol>

    <symbol id="website" fill="none" viewBox="0 0 24 24">
        <path stroke="currentColor" stroke-linecap="round" stroke-linejoin="round" stroke-width="2"
            d="M10 8H6a3 3 0 0 0-3 3v2a3 3 0 0 0 3 3h4m-1-4h6m-1-4h4a3 3 0 0 1 3 3v2a3 3 0 0 1-3 3h-4" />
    </symbol>

    <symbol id="location" fill="none" viewBox="0 0 24 24">
        <path stroke="currentColor" stroke-linejoin="round"
            d="M18 9c0 4.7-3.8 9.5-5.3 11.3a1 1 0 0 1-1.4 0C9.8 18.5 6 13.7 6 9c0-2 1.5-6 6-6s6 4 6 6Z" />
        <circle cx="12" cy="9" r="2" stroke="currentColor" stroke-linejoin="round" />
    </symbol>

    <symbol id="calendar" fill="none" viewBox="0 0 24 24">
        <path stroke="currentColor" stroke-linejoin="round"
            d="M3 8.3V19c0 .6.4 1 1 1h16c.6 0 1-.4 1-1V8.3m-18 0V5c0-.6.4-1 1-1h16c.6 0 1 .4 1 1v3.3m-18 0h18" />
        <path stroke="currentColor" stroke-linecap="round" stroke-linejoin="round" d="M7 2v3" />
        <path stroke="currentColor" stroke-linecap="round" stroke-linejoin="round" d="M17 2v3" />
        <path stroke="currentColor" stroke-linecap="round" stroke-linejoin="round" d="M18 11h-2" />
        <path stroke="currentColor" stroke-linecap="round" stroke-linejoin="round" d="M18 17h-2" />
        <path stroke="currentColor" stroke-linecap="round" stroke-linejoin="round" d="M13 11h-2" />
        <path stroke="currentColor" stroke-linecap="round" stroke-linejoin="round" d="M13 17h-2" />
        <path stroke="currentColor" stroke-linecap="round" stroke-linejoin="round" d="M8 11H6" />
        <path stroke="currentColor" stroke-linecap="round" stroke-linejoin="round" d="M8 17H6" />
        <path stroke="currentColor" stroke-linecap="round" stroke-linejoin="round" d="M18 14h-2" />
        <path stroke="currentColor" stroke-linecap="round" stroke-linejoin="round" d="M13 14h-2" />
        <path stroke="currentColor" stroke-linecap="round" stroke-linejoin="round" d="M8 14H6" />
    </symbol>

    <symbol id="building" fill="none" viewBox="0 0 24 24">
        <path stroke="currentColor"
            d="M11 14.9h2M11 11h2m-2-3.8h2m-5.8 7.7h1.9M7.2 11h1.9M7.2 7.2h1.9m5.8 7.7h1.9M14.9 11h1.9m-1.9-3.8h1.9" />
        <path stroke="currentColor" d="M9.1 18.7h5.8v3.8H9.1z" />
        <path stroke="currentColor" d="M23.5 22.5H.5" />
        <path stroke="currentColor" d="M16.8 3.4V1.5H7.2v1.9H4.3v19.1h15.4V3.4h-2.9z" />
    </symbol>

    <symbol id="cash" fill="none" viewBox="0 0 24 24">
        <path stroke="currentColor" stroke-linecap="round" stroke-linejoin="round" stroke-width="2"
            d="M2 7c0-.6.4-1 1-1h18c.6 0 1 .4 1 1v10c0 .6-.4 1-1 1H3a1 1 0 0 1-1-1V7Z" />
        <circle cx="12" cy="12" r="2" stroke="currentColor" stroke-linecap="round" stroke-linejoin="round"
            stroke-width="2" />
        <path stroke="currentColor" stroke-linecap="round" stroke-linejoin="round" stroke-width="2"
            d="M6 12h0m12 0h0" />
    </symbol>

    <symbol id="time" fill="none" viewBox="0 0 24 24">
        <path fill="currentColor" d="M23 12a11 11 0 1 1-22 0 11 11 0 0 1 22 0ZM3 12a9 9 0 1 0 18 0 9 9 0 0 0-18 0Z" />
        <path fill="currentColor"
            d="M12 5a1 1 0 0 0-1 1v6.5l.1.4.4.4 4.6 2.7a1 1 0 0 0 1-1.7L13 11.9V6c0-.6-.4-1-1-1Z" />
    </symbol>

    <symbol id="home" fill="none" viewBox="0 0 24 24">
        <path stroke="currentColor" stroke-linejoin="round" stroke-width="2"
            d="M9 21H4a1 1 0 0 1-1-1v-7.6c0-.3.1-.5.3-.7l8-8a1 1 0 0 1 1.4 0l8 8c.2.2.3.4.3.7V20c0 .6-.4 1-1 1h-5m-6 0h6m-6 0v-6c0-.6.4-1 1-1h4c.6 0 1 .4 1 1v6" />
    </symbol>

    <symbol id="work" fill="none" viewBox="0 0 24 24">
        <path stroke="currentColor" stroke-linecap="round" stroke-linejoin="round" stroke-width="2"
            d="M4 12H3V8c0-1.1.9-2 2-2h4m-5 6v6c0 1.1.9 2 2 2h12a2 2 0 0 0 2-2v-6M4 12h6m10 0h1V8a2 2 0 0 0-2-2h-4m5 6h-6m0 0v-2h-4v2m4 0v2h-4v-2M9 6V5c0-1.1.9-2 2-2h2a2 2 0 0 1 2 2v1M9 6h6" />
    </symbol>

    <symbol id="nature" fill="none" viewBox="0 0 24 24">
        <path fill="currentColor" fill-rule="evenodd"
            d="M18 4.8a.5.5 0 0 0-.5-.3 5 5 0 0 0-3.8 2.1 4 4 0 0 0-2.8-.4c-.1 0-.3.2-.3.4-.2.6-.3 2.2.8 3.3.5.5 1 .7 1.6.7.3 0 .6 0 .9-.2l.3.3c.4.2 1 .4 1.7.3.7-.2 1.4-.6 2-1.6a5 5 0 0 0 0-4.6Zm-4.7 4.8-.1-.2a3 3 0 0 1 0-1.9c-.6-.4-1.3-.4-1.7-.4 0 .6 0 1.4.6 2 .4.4.7.5 1 .5h.2Zm1.1-2.2a4 4 0 0 1 2.8-1.9A4 4 0 0 1 17 9c-.4.7-.9 1-1.3 1-.4.2-.8 0-1 0l-.6-.8c0-.4-.1-1 .3-1.7Zm.4 5.3c.3.1.4.4.5.6.1.4 0 .9-.2 1.3a12.2 12.2 0 0 0 1.8-.8l1-.4.8-.1c.2 0 .3 0 .5.2l.2.3c.2.3 0 .7 0 .9a3 3 0 0 1-.5.7l-1.6 1.4c-.7.4-1.4.9-2.2 1.2-.7.3-1.5.5-2.1.5a33 33 0 0 1-7.2-1.2.5.5 0 0 1-.3-.4v-3.4A.5.5 0 0 1 6 13a23.8 23.8 0 0 0 6.8-.3l1.4-.2c.2 0 .4 0 .6.2ZM6.5 14v2.5l1 .3a31.5 31.5 0 0 0 5.5.7c.4 0 1-.2 1.7-.5a11.4 11.4 0 0 0 3.4-2.3l.3-.4h-.1l-.9.4-.7.3a7.6 7.6 0 0 1-5.3.6.5.5 0 0 1 .2-1c.7.1 1.6 0 2.1-.2l.6-.4v-.4l-.2-.1-1.1.1h-.3c-1.2.3-3.2.6-6.2.4Zm12 .2Z"
            clip-rule="evenodd" />
    </symbol>

    <symbol id="cross" fill="none" viewBox="0 0 24 24">
        <path stroke="currentColor" stroke-linecap="round" stroke-linejoin="round" stroke-width="1.5"
            d="M20 4 4 20M4 4l16 16" />
    </symbol>

    <symbol id="golang" viewBox="0 0 205.4 76.7">
        <path
            d="M15.5 23.2c-.4 0-.5-.2-.3-.5l2.1-2.7c.2-.3.7-.5 1.1-.5h35.7c.4 0 .5.3.3.6l-1.7 2.6c-.2.3-.7.6-1 .6l-36.2-.1zM.4 32.4c-.4 0-.5-.2-.3-.5l2.1-2.7c.2-.3.7-.5 1.1-.5h45.6c.4 0 .6.3.5.6l-.8 2.4c-.1.4-.5.6-.9.6l-47.3.1zm24.2 9.2c-.4 0-.5-.3-.3-.6l1.4-2.5c.2-.3.6-.6 1-.6h20c.4 0 .6.3.6.7l-.2 2.4c0 .4-.4.7-.7.7l-21.8-.1z"
            fill="#00acd7" />
        <path
            d="m128.4 21.4-16.8 4.4c-1.5.4-1.6.5-2.9-1A13.4 13.4 0 0 0 104 21a17.4 17.4 0 0 0-18.1 1.5 21.3 21.3 0 0 0-10.2 19c.1 8 5.6 14.6 13.5 15.7 6.8.9 12.5-1.5 17-6.6l2.7-3.7H89.6c-2.1 0-2.6-1.3-1.9-3 1.3-3.1 3.7-8.3 5.1-10.9.3-.6 1-1.6 2.5-1.6h36.4c-.2 2.7-.2 5.4-.6 8.1a42.6 42.6 0 0 1-8.2 19.6 41.7 41.7 0 0 1-28.5 17 35.4 35.4 0 0 1-26.9-6.6 31.4 31.4 0 0 1-12.7-22.2A39.2 39.2 0 0 1 63.3 18 44.4 44.4 0 0 1 91.3.7c9.4-1.7 18.4-.6 26.5 4.9 5.3 3.5 9.1 8.3 11.6 14.1.6.9.2 1.4-1 1.7z"
            fill="#00acd7" />
        <path
            d="M161.5 76.7a37.5 37.5 0 0 1-24.4-8.8 31.4 31.4 0 0 1-10.8-19.3 38.2 38.2 0 0 1 8.1-30.2 42 42 0 0 1 28-16.7 37 37 0 0 1 28.5 5.1A31.1 31.1 0 0 1 205 29.1 38.6 38.6 0 0 1 193.5 63a45.8 45.8 0 0 1-24 12.8c-2.7.5-5.4.6-8 .9zm23.8-40.4c-.1-1.3-.1-2.3-.3-3.3a16.5 16.5 0 0 0-20.4-13.3c-9.3 2.1-15.3 8-17.5 17.4-1.8 7.8 2 15.7 9.2 18.9 5.5 2.4 11 2.1 16.3-.6a21.9 21.9 0 0 0 12.7-19.1z"
            fill="#00acd7" />
    </symbol>

    <symbol id="typescript" viewBox="0 0 512 512">
        <rect width="512" height="512" fill="#3178c6" rx="50" />
        <path fill="#fff" fill-rule="evenodd"
            d="M317 407.4v50c8 4.3 17.7 7.4 28.8 9.5a189 189 0 0 0 69.3-.3 84.3 84.3 0 0 0 28.5-11.4c8-5.2 14.5-12.1 19.3-20.6s7.1-19 7.1-31.6c0-9-1.4-17-4-23.8s-6.7-13-11.8-18.2c-5.1-5.4-11.2-10.1-18.4-14.4s-15.2-8.2-24.2-12c-6.5-2.6-12.4-5.3-17.7-7.8a89.8 89.8 0 0 1-13.3-7.8 34.1 34.1 0 0 1-8.4-8.5c-2-3-3-6.3-3-10 0-3.5.9-6.6 2.7-9.4s4.2-5.1 7.5-7.1c3.2-2 7.2-3.5 11.9-4.6a69 69 0 0 1 15.6-1.7 99.3 99.3 0 0 1 53.2 15.7v-46.8c-7.6-3-15.9-5-25-6.5s-19.3-2.1-31-2.1c-11.9 0-23.2 1.3-33.8 3.8s-20 6.6-28 12a59.8 59.8 0 0 0-19.3 20.7c-4.7 8.4-7 18.5-7 30.1 0 15 4.3 27.7 13 38.2a98.2 98.2 0 0 0 39.1 26.8c6.9 2.8 13.3 5.5 19.3 8.3s11 5.5 15.4 8.4c4.3 3 7.7 6.1 10.2 9.5a19.4 19.4 0 0 1 1.4 20.8c-1.5 2.7-3.9 5.1-7 7.2s-7.2 3.6-12 4.7a71.5 71.5 0 0 1-16.6 1.8 95.1 95.1 0 0 1-61.9-22.9zm-84.2-123.3H297V243H118v41h64v183h50.8z"
            clip-rule="evenodd" />
    </symbol>

    <symbol id="javascript" viewBox="0 0 630 630">
        <rect width="630" height="630" fill="#f7df1e" rx="50" />
        <path
            d="M423.2 492.2c12.7 20.7 29.2 36 58.4 36 24.5 0 40.2-12.3 40.2-29.3 0-20.3-16.1-27.4-43.1-39.3l-14.8-6.3c-42.7-18.2-71.1-41-71.1-89.2 0-44.4 33.8-78.2 86.7-78.2 37.6 0 64.7 13 84.2 47.4l-46.1 29.6c-10.2-18.2-21.1-25.4-38.1-25.4-17.3 0-28.3 11-28.3 25.4 0 17.8 11 25 36.4 36l14.8 6.3c50.3 21.5 78.7 43.5 78.7 93 0 53.3-41.9 82.5-98.1 82.5-55 0-90.5-26.2-108-60.6zm-209.1 5.1c9.3 16.5 17.7 30.5 38 30.5 19.5 0 31.8-7.6 31.8-37.2V289.3H343v202c0 61.4-36 89.3-88.4 89.3-47.4 0-74.9-24.6-88.8-54.1z" />
    </symbol>

    <symbol id="zig" viewBox="0 0 32 32">
        <path fill="#f7a41d"
            d="M5.7 19.7v-7.4h2.8V8.5H2v15h3.5l3.4-3.8H5.7zM26.5 8.5l-3.4 3.8h3.2v7.4h-2.8v3.8H30v-15h-3.5z" />
        <path fill="#f7a41d" d="m26.9 6.7-6.4 1.8h-11v3.8h7.3l-11.7 13 6.4-1.8h11v-3.8h-7.4l11.8-13z" />
    </symbol>

    <symbol id="vue" viewBox="0 0 261.8 226.7">
        <path fill="#41b883" d="m161.1 0-30.2 52.4L100.6 0H0l130.9 226.7L261.7 0z" />
        <path fill="#34495e" d="m161.1 0-30.2 52.4L100.6 0H52.3L131 136 209.4 0z" />
    </symbol>

    <symbol id="ansible" viewBox="0 0 32 32">
        <path
            d="m14.2 15.3 6.2 5L16.3 10zM16 0a16 16 0 1 0 0 32 16 16 0 0 0 0-32zm7.7 23c0 .7-.5 1.2-1.1 1.2-.4 0-.6-.1-1-.4L13.5 17l-2.7 7H8.3l7-16.8a1 1 0 0 1 1-.7c.4 0 .8.2 1 .7l6.3 15.3.1.4z" />
    </symbol>

    <symbol id="k8s" viewBox="0 0 720 720">
        <path fill="#326ce5"
            d="M349 0a46.7 46.3 0 0 0-18 4.6L86.8 121.3a46.7 46.3 0 0 0-25.2 31.5L1.2 415a46.7 46.3 0 0 0 6.3 35.6 46.7 46.3 0 0 0 2.7 3.6l169.1 210.3a46.7 46.3 0 0 0 36.5 17.5l271.3-.1a46.7 46.3 0 0 0 36.5-17.4l169-210.3a46.7 46.3 0 0 0 9-39.2l-60.3-262.3a46.7 46.3 0 0 0-25.3-31.4L371.6 4.6A46.7 46.3 0 0 0 349 0z" />
        <path fill="#fff" stroke="#fff" stroke-width=".3"
            d="M351.4 89.3c-8 0-14.6 7.3-14.6 16.3v4.1c.2 5.2 1.3 9.2 2 14 1.2 10.1 2.2 18.6 1.6 26.5a16 16 0 0 1-4.7 7.5l-.4 6.2a190.3 190.3 0 0 0-26.4 4c-38 8.7-70.7 28.2-95.6 54.7a245.2 245.2 0 0 1-5.3-3.8c-2.6.4-5.2 1.2-8.7-.8-6.5-4.4-12.5-10.5-19.7-17.8-3.3-3.6-5.7-6.9-9.6-10.3l-3.2-2.6a17.6 17.6 0 0 0-10.2-3.8 14 14 0 0 0-11.7 5.2c-5 6.3-3.4 16 3.6 21.5l.2.2 3 2.4c4.2 3 8 4.7 12.2 7.1 8.7 5.4 16 9.9 21.7 15.3 2.3 2.4 2.7 6.6 3 8.4l4.7 4.2a189.3 189.3 0 0 0-29.9 132l-6.1 1.7c-1.6 2.1-4 5.4-6.3 6.4-7.5 2.3-16 3.2-26.2 4.3-4.8.4-9 .1-14 1.1l-4 1h-.3c-8.6 2-14.2 10-12.4 17.8 1.8 7.8 10.2 12.6 18.9 10.7h.2l.3-.1 3.8-.9c5-1.3 8.6-3.3 13.1-5 9.7-3.5 17.7-6.4 25.5-7.5 3.3-.2 6.7 2 8.4 3l6.4-1.1A190.3 190.3 0 0 0 255 516.5l-2.6 6.4c1 2.4 2 5.8 1.3 8.2-2.9 7.4-7.7 15.2-13.3 23.8-2.6 4-5.4 7.1-7.8 11.7l-1.9 4c-3.7 8-1 17.3 6.2 20.7 7.3 3.5 16.3-.2 20.2-8.2l1.9-3.8c2-4.7 2.7-8.8 4.2-13.4 3.9-9.7 6-20 11.3-26.3 1.5-1.7 3.8-2.4 6.3-3l3.3-6c34 13 72 16.5 109.9 7.9a189.8 189.8 0 0 0 25.1-7.6l3.1 5.6c2.5.8 5.3 1.3 7.5 4.6 4 6.8 6.7 14.8 10 24.6 1.5 4.5 2.2 8.6 4.3 13.4l1.8 3.7c3.9 8 13 11.8 20.2 8.3 7.2-3.5 10-12.8 6.2-20.8l-1.9-4c-2.4-4.5-5.1-7.6-7.8-11.6a136.6 136.6 0 0 1-13-23.2c-1.2-3.8.2-6.2 1.1-8.6-.5-.7-1.7-4.2-2.4-6 40.4-23.8 70.3-62 84.3-106l6.3 1.1c2.2-1.5 4.2-3.3 8.1-3 7.8 1 15.9 4 25.5 7.5 4.5 1.7 8.2 3.7 13.2 5l3.7.8.3.1h.2c8.7 2 17.1-2.8 19-10.6 1.7-7.8-3.8-15.8-12.5-17.8l-4.2-1c-5-1-9.2-.8-14-1.2a130 130 0 0 1-26.3-4.3c-3-1.2-5.2-4.8-6.3-6.3l-5.9-1.7a188.9 188.9 0 0 0-30.4-131.7l5.1-4.6c.3-2.6 0-5.4 2.8-8.3 5.7-5.4 13-9.9 21.7-15.3 4.2-2.4 8-4 12.2-7l3.2-2.7c7-5.6 8.7-15.2 3.6-21.5-5-6.3-14.8-7-21.8-1.3-1 .7-2.4 1.8-3.2 2.6-4 3.3-6.4 6.7-9.7 10.2-7.2 7.3-13.2 13.4-19.7 17.8-2.9 1.7-7 1-8.9 1l-5.6 4A191.7 191.7 0 0 0 367.5 164l-.3-6.5c-2-1.9-4.2-3.4-4.8-7.3-.6-8 .4-16.4 1.7-26.6.6-4.7 1.8-8.7 2-13.9v-4.1c0-9-6.6-16.3-14.7-16.3zm-18.3 113.4-4.3 76.8-.4.1a12.9 12.9 0 0 1-20.4 9.9h-.2L245 245c19.4-19 44.1-33.1 72.6-39.6a154.1 154.1 0 0 1 15.6-2.7zm36.7 0a152 152 0 0 1 87.6 42.3l-62.5 44.3h-.2a13 13 0 0 1-17.7-2.5 12.8 12.8 0 0 1-2.8-7.4h-.1zm-147.7 71 57.5 51.3-.1.3c5.2 4.5 6 12.3 1.6 17.8a12.9 12.9 0 0 1-6.7 4.4v.2L200.8 369a150.6 150.6 0 0 1 21.3-95.4zm258.2 0a152.5 152.5 0 0 1 22 95l-74-21.3v-.3a12.9 12.9 0 0 1-9.2-15.3 12.8 12.8 0 0 1 4-6.9v-.1l57.2-51.1zM339.6 329h23.6l14.6 18.2-5.3 22.9-21 10.1-21.3-10.2-5.2-22.8zm75.5 62.5c1 0 2 0 3 .2v-.1l76.2 12.9a150.8 150.8 0 0 1-61 76.6l-29.5-71.4v-.2a13 13 0 0 1 11.3-18zm-128 .3a12.9 12.9 0 0 1 11.7 18l.2.3-29.2 70.7a151.4 151.4 0 0 1-60.8-76l75.5-12.9.1.2c.9-.2 1.7-.3 2.6-.3zm63.8 31a12.8 12.8 0 0 1 6 1.3c2.6 1.2 4.6 3.2 5.9 5.5h.2l37.3 67.2a154.3 154.3 0 0 1-15 4.2 151.2 151.2 0 0 1-82.5-4.3l37.2-67a13 13 0 0 1 11-6.9z"
            color="#000" />
    </symbol>

    <symbol id="lit" viewBox="0 0 768 960">
        <path fill="#00e8ff" d="m192 576 96-288 432 432-144 240-192-192h-96" />
        <path fill="#283198" fill-rule="evenodd" d="M384 768V384l192-192v384m-480 0h96l96 192-96 192L0 768z" />
        <path fill="#324fff" d="M192 576V192L384 0v384m192 576V576l192-192v384M0 768V384l192 192" />
        <path fill="#0ff" d="M192 960V576l192 192" />
    </symbol>

    <symbol id="windows" viewBox="-15 -15 117 117">
        <path fill="#00adef"
            d="m0 12.4 35.7-4.9V42L0 42.2zm35.7 33.5v34.5L0 75.4V45.8zM40 7l47.3-7v41.5L40 42zm47.3 39.4v41.3L40 80.9V46.2z" />
    </symbol>

    <symbol id="linux" viewBox="0 2 48 48">
        <path fill="#ECEFF1"
            d="m20.1 18.2.1 2.3-1.6 3-2.5 4.9-.5 4.1 1.8 5.8 4.1 2.3h6.2l5.8-4.4 2.6-6.9-6-7.3-1.7-4.1z" />
        <path fill="#263238"
            d="M34.3 23.9c-1.6-2.3-2.9-3.7-3.6-6.6-.7-2.9.2-2.1-.4-4.6A7.9 7.9 0 0 0 29 9.8a3.8 3.8 0 0 0-1.7-1.2c-.9-.5-3-1.3-5.6.1-2.7 1.4-2.4 4.4-1.9 10.5 0 .4-.1.9-.3 1.3-.4.9-1.1 1.7-1.7 2.4-.7 1-1.4 2-1.9 3.1-1.2 2.3-2.3 5.2-2 6.3.5-.1 6.8 9.5 6.8 9.7l3.6-.1c2.1-.1 3.3-.2 5 .2l-.1-.9.2-1.8.3-1.6a10 10 0 0 1-4.5 2.2c-1.5.3-4-.2-5.2-1.7l.4-.1c.3-.1.6-.2.7-.4.3-.5.1-1-.1-1.3-.2-.3-1.7-1.4-2.4-2l-1.5-1.3-.8-.8-.4-.5c-.2-.5-.3-1.1-.2-1.9.1-1.1.5-2 1-3l.7-1.2s-1.7 4.2-.8 5.5c0 0 .1-1.3.5-2.6.3-.9.8-2.2 1.4-2.9s2.1-3.3 2.2-4.9l.1-1.9c-.4-.4 6.6-1.4 7-.3l2.3 5.9c.4.9.9 1.7 1.2 2.7.3 1.1.5 2.6.5 4.1l-.1 1.3c.2 0 4.1-4.2-.5-7.7 0 0 2.8 1.3 2.9 3.9.1 2.1-.8 3.8-1 4.1l2.2.9a5 5 0 0 0 1.2-.3l.4-1.4c.7-2.3-1-6-2.6-8.3z" />
        <g fill="#ECEFF1">
            <ellipse cx="21.6" cy="15.3" rx="1.3" ry="2" />
            <ellipse cx="26.1" cy="15.2" rx="1.7" ry="2.3" />
        </g>
        <g fill="#212121">
            <ellipse cx="21.7" cy="15.5" rx="1.2" ry=".7" transform="rotate(-97.2 21.7 15.5)" />
            <ellipse cx="26" cy="15.6" rx="1" ry="1.3" />
        </g>
        <path fill="#FFC107"
            d="M39.3 37.6c-.4-.2-1.1-.5-1.7-1.4-.3-.5-.2-1.9-.7-2.5-.3-.4-.7-.2-.8-.2-.9.2-3 1.6-4.4 0-.2-.2-.5-.5-1-.5s-.7.2-.9.6-.2.7-.2 1.7l-.1 2.4c-.2 1.7-.5 2.7-.5 3.7 0 1.1.3 1.8.7 2.1.3.3.8.5 1.9.5 1.1 0 1.8-.4 2.5-1.1.5-.5.9-.7 2.3-1.7l3.1-1.9c.2-.2.5-.3.5-.9 0-.5-.4-.7-.7-.8zm-20.1.3L17.4 35c-.6-1-1.9-2.9-2.7-2.9-.6 0-.9.3-1.3.7-.4.4-.8 1.3-1.5 1.8-.6.5-2.3.4-2.7 1-.4.6.4 1.5.4 3 0 .6-.5 1-.6 1.4-.1.5-.2.8 0 1.2.4.6.9.8 4.3 1.5 1.8.4 3.5 1.4 4.6 1.5 1.1.1 3 0 3-2.7.1-1.6-.8-2-1.7-3.6zm1.9-18.1c-.6-.4-1.1-.8-1.1-1.4 0-.6.4-.8 1-1.3.1-.1 1.2-1.1 2.3-1.1s2.4.7 2.9.9c.9.2 1.8.4 1.7 1.1-.1 1-.2 1.2-1.2 1.7-.7.2-2 1.3-2.9 1.3l-1.4-.1c-.3-.1-.8-.6-1.3-1.1z" />
        <path fill="#634703"
            d="m20.9 19 .8.5.5.2h.9c.5 0 1.2-.2 1.9-.6l1.3-.7c.5-.3 1-.6.8-.7-.2-.1-.4 0-1.1.4l-1.7.9-1 .3h-.9l-.8-.2-.4-.2-.8-.6s-.2 0-.1.1l.6.6zm3-2.2c.1.2.3.2.4.3l.2.1c.1-.1 0-.3-.1-.3 0-.2-.5-.2-.5-.1zm-1.6.2.2.1.3-.2c.2-.1.1-.2-.2-.2l-.3.3z" />
        <path fill="#455A64"
            d="M32 34.7v.3c.2.4.7.5 1.1.5a2 2 0 0 0 1.5-.8l.2-.3.4-.6-.1-.2c-.1-.2-.4-.4-.8-.5l-1-.2c-.9-.1-1.4.2-1.7.5l.1.1c.2.2.3.4.3.7v.5z" />
    </symbol>

    <symbol id="sql" viewBox="0 0 24 24" fill="none">
        <ellipse cx="12" cy="7" stroke="currentColor" rx="7" ry="3" />
        <path stroke="currentColor" stroke-linecap="square" d="M5 13v4c0 1.7 3.1 3 7 3s7-1.3 7-3v-4" />
        <path stroke="currentColor" d="M5 7v5c0 1.7 3.1 3 7 3s7-1.3 7-3V7" />
    </symbol>

    <symbol id="info" fill="none" viewBox="0 0 24 24">
        <circle cx="12" cy="12" r="9" stroke="currentColor" stroke-linecap="round" stroke-linejoin="round" />
        <path stroke="currentColor" stroke-linecap="round" stroke-linejoin="round" d="M12 11v6m-.2-9V7h.4v1h-.4Z" />
    </symbol>

    <symbol id="github" fill="none" viewBox="0 0 1024 1024">
        <path fill="currentColor" fill-rule="evenodd"
            d="M512 0A511.9 511.9 0 0 0 0 512c0 226.6 146.6 418 350 485.8 25.7 4.4 35.3-11 35.3-24.4 0-12.1-.7-52.4-.7-95.3-128.6 23.7-161.9-31.4-172.1-60.2-5.8-14.7-30.7-60.1-52.5-72.3-18-9.6-43.5-33.3-.6-34 40.3-.6 69 37.2 78.7 52.6 46 77.4 119.7 55.6 149.1 42.2 4.5-33.3 18-55.7 32.6-68.5-113.9-12.8-233-57-233-252.8 0-55.7 20-101.7 52.6-137.6-5.2-12.8-23-65.3 5-135.7 0 0 43-13.4 140.9 52.5a475 475 0 0 1 128-17.3c43.5 0 87 5.8 128 17.3 97.9-66.5 140.8-52.5 140.8-52.5 28.1 70.4 10.2 123 5.1 135.7a198.1 198.1 0 0 1 52.5 137.6c0 196.5-119.7 240-233.6 252.8 18.5 16 34.5 46.7 34.5 94.7 0 68.5-.6 123.6-.6 140.8 0 13.5 9.6 29.5 35.2 24.4A512.8 512.8 0 0 0 1024 512C1024 229.1 794.9 0 512 0Z"
            clip-rule="evenodd" />
    </symbol>

    <symbol id="flag-en" fill="none" viewBox="0 0 7410 3900" xmlns:xlink="http://www.w3.org/1999/xlink">
        <path fill="#b31942" d="M0 0h7410v3900H0" />
        <path stroke="#fff" stroke-width="300" d="M0 450h7410m0 600H0m0 600h7410m0 600H0m0 600h7410m0 600H0" />
        <path fill="#0a3161" d="M0 0h2964v2100H0" />
        <g fill="#fff">
            <g id="s18">
                <g id="s9">
                    <g id="s5">
                        <g id="s4">
                            <path id="s" d="m247 90 70.5 217L133 173h228L176.5 307z" />
                            <use xlink:href="#s" y="420" />
                            <use xlink:href="#s" y="840" />
                            <use xlink:href="#s" y="1260" />
                        </g>
                        <use xlink:href="#s" y="1680" />
                    </g>
                    <use xlink:href="#s4" x="247" y="210" />
                </g>
                <use xlink:href="#s9" x="494" />
            </g>
            <use xlink:href="#s18" x="988" />
            <use xlink:href="#s9" x="1976" />
            <use xlink:href="#s5" x="2470" />
        </g>
    </symbol>

    <symbol id="flag-ru" fill="none" viewBox="0 0 9 6">
        <path fill="#fff" d="M0 0h9v3H0z" />
        <path fill="#d52b1e" d="M0 3h9v3H0z" />
        <path fill="#0039a6" d="M0 2h9v2H0z" />
    </symbol>
</svg>
