<svg xmlns="http://www.w3.org/2000/svg" viewBox="0 0 846.7 846.7">
    <style>
        @media (prefers-color-scheme: dark) {
            path {
                fill: #fff;
            }
        }
    </style>

    <path fill="#111"
        d="M539.8 794.7c27.1 0 27.1 41.3 0 41.3H42.3a20.6 20.6 0 0 1-20.7-20.7V193.6c0-5.7 2.3-10.8 6-14.6L190 16.7c4-4 9.3-6 14.6-6h466.9c11.4 0 20.6 9.2 20.6 20.6v361.4c0 27.2-41.3 27.2-41.3 0V52H213.1L63 202.2v592.5h476.9zm-351.3-182c-27.1 0-27.1-41.3 0-41.3h306.7c27.2 0 27.2 41.3 0 41.3H188.5zm0-274.7c-27.1 0-27.1-41.3 0-41.3h306.7c27.2 0 27.2 41.3 0 41.3H188.5zm0 91.6c-27.1 0-27.1-41.3 0-41.3h306.7c27.2 0 27.2 41.3 0 41.3H188.5zm0 91.5c-27.1 0-27.1-41.3 0-41.3h306.7c27.2 0 27.2 41.3 0 41.3H188.5zm0-274.6c-27.1 0-27.1-41.3 0-41.3h306.7c27.2 0 27.2 41.3 0 41.3H188.5zm496.6 238.2A90.2 90.2 0 0 1 761 624c37.5 25 61.4 66.1 64 111.2 1.7 27-39.5 29.5-41 2.4a102.1 102.1 0 0 0-54.2-84.2 89.8 89.8 0 0 1-92.4-2 102.3 102.3 0 0 0-57.8 86.2c-1.6 27-42.7 24.7-41.1-2.4a143.6 143.6 0 0 1 69-114.3A90.2 90.2 0 0 1 685 484.7zm0 41.3a49 49 0 1 0 0 97.9 49 49 0 0 0 0-97.9z" />
</svg>
